<svg id="Shape" xmlns="http://www.w3.org/2000/svg" viewBox="0 0 1000 1000">
  <style>
    @keyframes playing {
      0% {
        transform: rotate(0);
        animation-timing-function: linear;
      }
      60%, 70% {
        transform: rotate(3turn);
        animation-timing-function: ease-in;
      }
      90% {
        transform: rotate(0);
      }
    }
    path {
      fill: #fff;
    }
    @media (prefers-reduced-motion: no-preference) {
      .eye {
        animation: playing 10s infinite;
        animation-delay: 1s;
      }
    }
  </style>
  <path class="eye" style="transform-origin:665px 340px" d="M665 255.2c-46.9 0-84.8 38-84.8 84.8 0 46.9 38 84.8 84.8 84.8 46.9 0 84.8-38 84.8-84.8 0-46.9-37.9-84.8-84.8-84.8zm69.7 84.8c0 8.3-1.5 16.3-4.2 23.7l-10.3-5.9c-1-.6-2.4-.2-3 .8l-9.9 17.2c-.6 1-.2 2.4.8 3l10.3 5.9a69.526 69.526 0 0 1-41.2 23.8v-11.9c0-1.2-1-2.2-2.2-2.2h-19.9c-1.2 0-2.2 1-2.2 2.2v11.9c-16.4-2.9-30.8-11.4-41.1-23.6l10.2-6c1-.6 1.4-1.9.8-3l-10-17.2c-.6-1-1.9-1.4-3-.8l-10.2 6c-2.8-7.5-4.4-15.6-4.4-24.1 0-8.3 1.5-16.3 4.2-23.7l10.3 5.9c1 .6 2.4.2 3-.8l9.9-17.3c.6-1 .2-2.4-.8-3l-10.3-5.9c10.3-12.3 24.8-21 41.3-23.9V283c0 1.2 1 2.2 2.2 2.2h20c1.2 0 2.2-1 2.2-2.2v-11.9c16.4 2.9 30.8 11.5 41.2 23.7l-10.3 5.9c-1 .6-1.4 1.9-.8 3l10 17.2c.6 1 1.9 1.4 3 .8l10.2-5.9c2.6 7.8 4.2 15.8 4.2 24.2z"/>
  <path class="eye" style="transform-origin:335px 340px" d="M335 255.2c-46.9 0-84.8 38-84.8 84.8 0 46.9 38 84.8 84.8 84.8 46.9 0 84.8-38 84.8-84.8 0-46.9-37.9-84.8-84.8-84.8zm55.2 102.6c-1-.6-2.4-.2-3 .8l-9.9 17.2c-.6 1-.2 2.4.8 3l10.3 5.9a69.526 69.526 0 0 1-41.2 23.8v-11.9c0-1.2-1-2.2-2.2-2.2h-19.9c-1.2 0-2.2 1-2.2 2.2v11.9c-16.4-2.9-30.8-11.4-41.1-23.6l10.2-6c1-.6 1.4-1.9.8-3l-10-17.2c-.6-1-1.9-1.4-3-.8l-10.2 6c-2.8-7.5-4.4-15.6-4.4-24.1 0-8.3 1.5-16.3 4.2-23.7l10.3 5.9c1 .6 2.4.2 3-.8l9.9-17.3c.6-1 .2-2.4-.8-3l-10.3-5.9c10.3-12.3 24.8-21 41.3-23.9V283c0 1.2 1 2.2 2.2 2.2h20c1.2 0 2.2-1 2.2-2.2v-11.9c16.4 2.9 30.8 11.5 41.2 23.7l-10.3 5.9c-1 .6-1.4 1.9-.8 3l10 17.2c.6 1 1.9 1.4 3 .8l10.2-5.9c2.7 7.5 4.3 15.5 4.3 23.8s-1.5 16.3-4.2 23.7l-10.4-5.5z"/>
  <path d="M871 327.9c0-163.2-192.9-307.7-371-307.7S129 164.6 129.2 327.9L129 920c0 34.2 27.8 62 62 62s62-27.8 62-62V685c0-22.6 18.4-41 41-41s41 18.4 41 41v137c0 34.2 27.8 62 62 62s62-27.8 62-62V685c0-22.4 18.1-40.5 40.5-40.5S540 662.6 540 685v235c0 34.2 27.8 62 62 62s62-27.8 62-62V685c0-22.9 18.6-41.5 41.5-41.5S747 662.1 747 685v137c0 34.2 27.8 62 62 62s62-27.8 62-62V327.9zM665 450H335c-60.8 0-110-49.2-110-110s49.2-110 110-110 110 49.2 110 110c0 34.2-15.6 64.8-40.2 85h190.4c-24.5-20.2-40.2-50.8-40.2-85 0-60.8 49.2-110 110-110s110 49.2 110 110-49.2 110-110 110z"/>
</svg>
